<svg xmlns="http://www.w3.org/2000/svg" id="svg10596" width="1200" height="800" version="1.1" viewBox="-12.095 -20.158 104.821 120.948"><defs id="defs10590"><style id="style10598">.cls-2{fill:#fff}.cls-3{fill:#99ca3c}</style></defs><g id="layer1" transform="translate(134.31 -224.4341)"><g id="g10679" transform="translate(-134.31 224.4341) scale(.26458)"><rect id="rect10604" width="304.75" height="304.75" x="0" y="0" fill="#349946" rx="6.75" ry="6.75"/><path id="path10606" fill="#fff" d="M160.08 98h-6c-.36 0-.48.18-.48.54v23.77a.38.38 0 01-.42.42h-4.33c-.3 0-.42-.12-.42-.42V98.5c0-.36-.12-.54-.54-.54h-6c-.3 0-.48-.12-.48-.42V94c0-.3.18-.42.48-.42h18.17a.38.38 0 01.42.42v3.55c0 .3-.12.42-.42.42" class="cls-2" transform="translate(-27.21 -28.31)"/><path id="path10608" fill="#fff" d="M187.7 122.69h-4.27a.38.38 0 01-.42-.42v-11.68c0-.3-.18-.48-.54-.48h-9.93c-.36 0-.48.18-.48.48v11.67c0 .3-.18.42-.48.42h-4.33a.38.38 0 01-.42-.42V94a.38.38 0 01.42-.42h4.33a.43.43 0 01.48.42v11.19c0 .3.12.48.48.48h9.93c.36 0 .54-.18.54-.48V94a.38.38 0 01.42-.42h4.27c.36 0 .48.12.48.42v28.28c0 .3-.12.42-.48.42" class="cls-2" transform="translate(-27.21 -28.31)"/><path id="path10610" fill="#fff" d="M216.4 122.69h-17.57a.38.38 0 01-.42-.42V94a.38.38 0 01.42-.42h17.57a.43.43 0 01.48.42v3.55c0 .3-.18.42-.48.42h-12.28c-.36 0-.48.18-.48.54v6.68c0 .3.12.48.48.48h10.17a.43.43 0 01.48.42v3.61a.43.43 0 01-.48.42h-10.17c-.36 0-.48.18-.48.48v7.16c0 .3.12.48.48.48h12.28a.44.44 0 01.48.48v3.55c0 .3-.18.42-.48.42" class="cls-2" transform="translate(-27.21 -28.31)"/><path id="path10612" fill="#fff" d="M121.42 249.21h-4.08c-.3 0-.48-.12-.48-.42v-8.7c0-4 .36-9.12.42-9.66l-.18-.06c-.06.18-.72 2.52-1.2 3.66l-4.74 10.86c-.06.3-.3.36-.54.36H108a.57.57 0 01-.6-.36L102.77 234c-.48-1.14-1.14-3.42-1.2-3.6l-.18.06c.06.54.42 5.58.42 9.6v8.76c0 .3-.12.42-.48.42h-4.14c-.3 0-.42-.12-.42-.42v-28.2c0-.3.12-.42.42-.42h4.32a.45.45 0 01.42.24l6.78 16c.24.6.54 1.62.6 1.86h.18c0-.24.42-1.26.6-1.86l6.66-16a.48.48 0 01.48-.24h4.2c.3 0 .48.12.48.42v28.2c0 .3-.18.42-.48.42" class="cls-2" transform="translate(-27.21 -28.31)"/><path id="path10614" fill="#fff" d="M150.76 249.2h-4.62c-.24 0-.36-.06-.42-.3l-1.68-5c-.06-.24-.24-.3-.54-.3h-7.62c-.3 0-.42.06-.48.3l-1.68 5a.45.45 0 01-.48.3h-4.5c-.42 0-.6-.24-.48-.6l9.36-28.14a.45.45 0 01.48-.3h3.24c.24 0 .42.06.42.3l9.42 28.14c.12.36 0 .6-.42.6M140.5 231c-.24-1.32-.6-3.36-.66-3.54h-.18a23.52 23.52 0 01-.72 3.54l-2.34 8.22c-.06.24.06.48.48.48h5.28c.36 0 .54-.24.42-.48z" class="cls-2" transform="translate(-27.21 -28.31)"/><path id="path10616" fill="#fff" d="M178.47 249.2h-4.62a.38.38 0 01-.36-.3l-4.73-11.9a.4.4 0 00-.42-.3h-5.1c-.36 0-.48.18-.48.48v11.64c0 .3-.18.42-.48.42H158a.38.38 0 01-.42-.42v-28.2a.38.38 0 01.42-.42h11.28c5.4 0 8.88 3.24 8.88 8.52v.42a7.27 7.27 0 01-3.9 6.18c-.3.18-.3.42-.24.78l5 12.54c.12.36 0 .6-.48.6M173 228.27a3.63 3.63 0 00-3.72-3.72h-6c-.36 0-.48.18-.48.54V232c0 .3.12.48.48.48h6a3.56 3.56 0 003.72-3.6z" class="cls-2" transform="translate(-27.21 -28.31)"/><path id="path10618" fill="#fff" d="M208.89 249.21h-5.64a.64.64 0 01-.54-.3L195.33 237c-.24-.36-.54-.36-.78-.06l-2.22 2.76v9.06c0 .3-.18.42-.48.42h-4.32a.38.38 0 01-.42-.42v-28.2a.38.38 0 01.42-.42h4.32a.42.42 0 01.48.42V231a10 10 0 00.18 1.62l9.72-12.24a.54.54 0 01.48-.24h5.1c.54 0 .66.36.36.72l-9.36 11c-.18.18-.12.3 0 .48l10.44 16.14c.24.36.12.66-.36.66" class="cls-2" transform="translate(-27.21 -28.31)"/><path id="path10620" fill="#fff" d="M233.6 249.21h-17.52a.38.38 0 01-.42-.42v-28.2a.38.38 0 01.42-.42h17.52a.42.42 0 01.48.42v3.54c0 .3-.18.42-.48.42h-12.24c-.36 0-.48.18-.48.54v6.66c0 .3.12.48.48.48h10.14a.43.43 0 01.48.42v3.6a.42.42 0 01-.48.42h-10.14c-.36 0-.48.18-.48.48v7.14c0 .3.12.48.48.48h12.24a.44.44 0 01.48.48v3.54c0 .3-.18.42-.48.42" class="cls-2" transform="translate(-27.21 -28.31)"/><path id="path10622" fill="#fff" d="M257.12 224.55h-6c-.36 0-.48.18-.48.54v23.7a.38.38 0 01-.42.42h-4.32c-.3 0-.42-.12-.42-.42v-23.7c0-.36-.12-.54-.54-.54H239c-.3 0-.48-.12-.48-.42v-3.54c0-.3.18-.42.48-.42h18.12a.38.38 0 01.42.42v3.54c0 .3-.12.42-.42.42" class="cls-2" transform="translate(-27.21 -28.31)"/><path id="path10624" fill="#99ca3c" d="M70.67 123V72.26a.46.46 0 01.46-.46H288a.46.46 0 01.46.46V123h9.21V72.26a9.67 9.67 0 00-9.67-9.67H71.13a9.67 9.67 0 00-9.67 9.67V123z" class="cls-3" transform="translate(-27.21 -28.31)"/><path id="path10626" fill="#99ca3c" d="M288.51 219.78v69.33a.46.46 0 01-.46.46h-64.16c-2.18 3.31-4.4 6.39-6.65 9.21H288a9.67 9.67 0 009.67-9.67v-69.33z" class="cls-3" transform="translate(-27.21 -28.31)"/><path id="path10628" fill="#99ca3c" d="M70.67 219.78v69.33a.46.46 0 00.46.46h64.15c2.18 3.31 4.4 6.39 6.66 9.21H71.13a9.67 9.67 0 01-9.67-9.67v-69.33z" class="cls-3" transform="translate(-27.21 -28.31)"/><path id="path10630" fill="#fff" d="M184.59 272.17c-18.55-2.6-32.81 8.08-30.23 20.53 16.53-14.23 28.34-6.53 48.09-11.29.78-.19.06.76-1.11 1.31-10.35 4.87-17.78 1.27-31.77 4.88-10.66 2.75-18.28 12.76-22 18.77-1.37 2.53.68 6 1 6.54.54.91 1 .64 1.1-.26.46-2.85 1.87-9.05 5.59-11.52 12.71 13.9 45.45 14.34 66.48-29.75.48-1 .07-2.69-2.06-1.24-8.62 4.12-16.54 4.63-35.09 2" class="cls-2" transform="translate(-27.21 -28.31)"/><path id="path10632" fill="#fff" d="M82.46 142H46.08a.78.78 0 00-.87.86v57.47a.78.78 0 00.87.86h9c.62 0 1-.25 1-.86V176.6c0-.61.25-1 1-1H78.1c.5 0 1-.25 1-.86v-7.34c0-.61-.5-.86-1-.86H57.05c-.75 0-1-.37-1-1V152c0-.73.25-1.1 1-1.1h25.41c.62 0 1-.25 1-.86v-7.21c0-.59-.46-.83-1-.83z" class="cls-2" transform="translate(-27.21 -28.31)"/><path id="path10634" fill="#fff" d="M132.68 174.4c-.13-.73-.13-1.22.5-1.59a14.8 14.8 0 008.1-12.6v-.85c0-10.76-7.23-17.37-18.44-17.37H99.41a.78.78 0 00-.87.86v57.47a.78.78 0 00.87.86h9c.62 0 1-.25 1-.86V176.6c0-.61.25-1 1-1H121a.83.83 0 01.87.61l9.84 24.33a.79.79 0 00.75.61H142c1 0 1.25-.49 1-1.22zm-2.12-14.67c0 4.28-3.36 7.34-7.72 7.34h-12.47c-.75 0-1-.37-1-1V152c0-.73.25-1.1 1-1.1h12.46a7.46 7.46 0 017.72 7.58z" class="cls-2" transform="translate(-27.21 -28.31)"/><path id="path10636" fill="#fff" d="M197.21 142h-36.38a.78.78 0 00-.87.86v57.47a.78.78 0 00.87.86h36.38c.62 0 1-.25 1-.86v-7.21a.91.91 0 00-1-1H171.8c-.75 0-1-.37-1-1V176.6c0-.61.25-1 1-1h21.06c.5 0 1-.25 1-.86v-7.34c0-.61-.5-.85-1-.85H171.8c-.75 0-1-.37-1-1V152c0-.73.25-1.1 1-1.1h25.41c.62 0 1-.24 1-.86v-7.21c0-.59-.5-.83-1-.83z" class="cls-2" transform="translate(-27.21 -28.31)"/><path id="path10638" fill="#fff" d="M313 142h-8.85a.78.78 0 00-.87.86v22.74c0 .61-.37 1-1.13 1h-20.59c-.75 0-1-.37-1-1v-22.75c0-.61-.5-.86-1-.86h-9a.78.78 0 00-.87.86v57.47a.78.78 0 00.87.86h9c.62 0 1-.25 1-.86V176.6c0-.61.25-1 1-1h20.55c.75 0 1.13.37 1.13 1v23.72a.78.78 0 00.87.86H313c.75 0 1-.25 1-.86v-57.47c0-.61-.3-.85-1-.85z" class="cls-2" transform="translate(-27.21 -28.31)"/><path id="path10640" fill="#fff" d="M226.88 193.2a10.58 10.58 0 01-2.08-.85 8.47 8.47 0 002.08.85z" class="cls-2" transform="translate(-27.21 -28.31)"/><path id="path10642" fill="#fff" d="M224.38 192.11l-.34-.23z" class="cls-2" transform="translate(-27.21 -28.31)"/><path id="path10644" fill="#fff" d="M224 191.89l-.26-.2z" class="cls-2" transform="translate(-27.21 -28.31)"/><path id="path10646" fill="#fff" d="M224.8 192.35l-.42-.24z" class="cls-2" transform="translate(-27.21 -28.31)"/><path id="path10648" fill="#fff" d="M236.46 167.18c-6.11-2.32-13.09-4.77-13.09-9.66a7.82 7.82 0 012.57-5.92l.09-.08c.18-.15.36-.29.55-.43a8.18 8.18 0 01.73-.45 10.69 10.69 0 015.08-1.21 10.5 10.5 0 016.32 2.1 12.9 12.9 0 013.17 3.44c.25.61.87.61 1.5.24l6.73-4a1 1 0 00.37-1.59 17.4 17.4 0 00-7.77-7.11 25.48 25.48 0 00-10.43-2.09 26.2 26.2 0 00-8.93 1.48l-.27.1-.69.28c-6.35 2.58-10 8.17-10 15.55 0 10.51 7.1 14.06 15.95 17.61 6.48 2.57 13 4.65 13 10.27a7.87 7.87 0 01-2.79 5.93 9 9 0 01-.78.58l-.17.11c-.18.11-.36.21-.54.31a12.18 12.18 0 01-5.93 1.19 15.12 15.12 0 01-4.21-.58 8.47 8.47 0 01-2.08-.85l-.42-.24-.34-.23-.27-.18a13.59 13.59 0 01-3.28-3.6 1 1 0 00-1.5-.25l-6.72 4a1 1 0 00-.25 1.59 16.23 16.23 0 007.79 7.2l.29.11.84.33.24.08.9.29a32.39 32.39 0 009.13 1.27 31 31 0 009.76-1.48l.53-.17q.7-.25 1.36-.54c5.94-2.66 9.28-8.06 9.28-15.17-.02-10.77-6.75-14.92-15.72-18.23z" class="cls-2" transform="translate(-27.21 -28.31)"/></g></g></svg>